OpenSim_Sub06_CSBaseline_LCS.mot
version=1
nRows=32
nColumns=11
inDegrees=no
endheader
time	Bot_Shank	2nd_Bot_Shank	2nd_Top_Shank	Top_Shank	Bot_Thigh	Med_Thigh	Top_Thigh	BNOx	BNOy	BNOZ
21.23000000	10527.42634456	10684.52079567	10760.38810961	11770.36686663	13350.65640079	14569.19822855	15108.07049097	144.19872530	-59.64957079	-71.55760161
21.24000000	10524.10822544	10703.80070763	10813.44790437	11787.75652503	13351.48960494	14562.92484276	15100.42325901	143.60275356	-59.69879497	-68.93875306
21.25000000	10521.69957522	10723.27229992	10862.99638493	11800.89847477	13350.34966948	14552.62544950	15090.89522446	143.27689796	-59.95846540	-67.69432755
21.26000000	10520.10565441	10741.74485420	10906.97693288	11810.78789856	13348.22883533	14539.79278393	15080.27909675	143.19545964	-60.41110187	-68.14555714
21.27000000	10519.23172353	10758.02765216	10943.33292979	11818.41997912	13346.11934339	14525.91958120	15069.36758533	143.33273970	-61.03922415	-70.61367395
21.28000000	10518.98304310	10770.92997550	10970.00775726	11824.78989917	13345.01343459	14512.49857649	15058.95339962	143.66303925	-61.82535201	-75.41991004
21.29000000	10519.25754369	10779.39704664	10985.26230572	11830.76256113	13345.72514289	14500.82745198	15049.71102221	144.16350622	-62.75150001	-82.75527012
21.30000000	10519.89898283	10783.37877515	10989.70405446	11836.24001454	13347.75144162	14490.76232657	15041.44116519	144.83232813	-63.79594864	-91.84829708
21.31000000	10520.72683755	10783.27537430	10984.99223089	11840.69275547	13349.99899362	14481.51320619	15033.55291420	145.67712256	-64.93530478	-101.49615556
21.32000000	10521.56047035	10779.48918147	10972.79102345	11843.58924433	13351.37167726	14472.28704907	15025.45350755	146.70555153	-66.14616742	-110.49397543
21.33000000	10522.21924373	10772.42253402	10954.76462061	11844.39794156	13350.77337088	14462.29081345	15016.55018357	147.92527708	-67.40513558	-117.63688654
21.34000000	10522.52252020	10762.47776933	10932.57721082	11842.58730756	13347.10795286	14450.73145756	15006.25018058	149.34396125	-68.68880822	-121.72001873
21.35000000	10522.28966225	10750.05722474	10907.89298254	11837.62580277	13339.27930154	14436.81593963	14993.96073689	150.96926609	-69.97378436	-121.53850187
21.36000000	10521.34003238	10735.56323764	10882.37612424	11828.98188761	13326.19129529	14419.75121790	14979.08909084	152.80885363	-71.23666299	-115.88746580
21.37000000	10519.49299309	10719.39814538	10857.69082438	11816.12402250	13306.74781246	14398.74425060	14961.04248073	154.87038592	-72.45404309	-103.56204038
21.38000000	10516.60600708	10701.98553251	10835.36564032	11798.65200084	13280.07841640	14373.17505446	14939.36214178	157.15904415	-73.60209521	-83.61541253
21.39000000	10512.81812128	10683.90601347	10815.92673097	11777.13624887	13246.98062352	14343.70265664	14914.57962986	159.66167466	-74.65382337	-57.00797222
21.40000000	10508.39458954	10665.81058398	10799.45097726	11752.58223329	13208.99953176	14311.55934056	14887.67036548	162.35690605	-75.58081233	-25.55492346
21.41000000	10503.60126100	10648.35057173	10786.01314090	11725.99747291	13167.68376536	14277.98009367	14859.61186289	165.22332813	-76.35464017	8.92449759
21.42000000	10498.70398480	10632.17730442	10775.68798358	11698.38948652	13124.58194857	14244.19990343	14831.38163632	168.23953072	-76.94688495	44.61105477
21.43000000	10493.96861010	10617.94210975	10768.55026700	11670.76579293	13081.24270565	14211.45375730	14803.95720000	171.38410366	-77.32912475	79.68551194
21.44000000	10489.66098605	10606.29631542	10764.67475286	11644.13391094	13039.21466085	14180.97664274	14778.31606816	174.63563676	-77.47293763	112.32863293
21.45000000	10486.04696179	10597.89124913	10764.13620286	11619.50135933	13000.04643843	14154.00354720	14755.43575502	177.97271984	-77.34990168	140.72118159
21.46000000	10483.39238647	10593.37823858	10767.00937870	11597.87565692	12965.28666263	14131.76945814	14736.29377483	181.37394274	-76.93159497	163.04392177
21.47000000	10481.91463903	10593.26844227	10773.26339966	11580.10539464	12936.33096861	14115.32933299	14721.76266522	184.81238280	-76.19803315	177.73937895
21.48000000	10481.47287329	10597.03708068	10782.08662142	11565.86458718	12913.44430640	14104.40759476	14711.93912117	188.22037676	-75.19159099	185.18466090
21.49000000	10481.76568549	10603.69506380	10792.31745916	11554.30080069	12896.38484966	14098.13231700	14706.57210272	191.51200131	-73.98259278	186.62396085
21.50000000	10482.49091454	10612.25111150	10802.79267737	11544.55911806	12884.90838156	14095.62876026	14705.40892961	194.60124699	-72.64149464	183.30556205
21.51000000	10483.34639935	10621.71394362	10812.34904053	11535.78462219	12878.77068529	14096.02218514	14708.19692162	197.40210435	-71.23875271	176.47774777
21.52000000	10484.02997881	10631.09228003	10819.82331316	11527.12239598	12877.72754403	14098.43785219	14714.68339850	199.82856395	-69.84482311	167.38880127
21.53000000	10484.23949183	10639.39484058	10824.05225974	11517.71752231	12881.53474096	14102.00102199	14724.61568001	201.79461632	-68.53016197	157.28700582
21.54000000	10483.67277731	10645.63034512	10823.87264477	11506.71508410	12889.94805927	14105.83695511	14737.74108592	203.21425202	-67.36522541	147.42064466
